<?xml version="1.0" encoding="UTF-8" standalone="no"?>
<!DOCTYPE svg PUBLIC "-//W3C//DTD SVG 1.1//EN"
 "http://www.w3.org/Graphics/SVG/1.1/DTD/svg11.dtd">
<!-- Generated by graphviz version 14.0.2 (20251019.1705)
 -->
<!-- Title: VPNConnections Pages: 1 -->
<svg width="424pt" height="524pt"
 viewBox="0.00 0.00 424.00 524.00" xmlns="http://www.w3.org/2000/svg" xmlns:xlink="http://www.w3.org/1999/xlink">
<g id="graph0" class="graph" transform="scale(1 1) rotate(0) translate(4 519.75)">
<title>VPNConnections</title>
<polygon fill="white" stroke="none" points="-4,4 -4,-519.75 419.73,-519.75 419.73,4 -4,4"/>
<text xml:space="preserve" text-anchor="middle" x="207.86" y="-501.3" font-family="Helvetica,sans-Serif" font-size="11.00">Site&#45;to&#45;Site VPN: Nebius (Site A) ↔ GCP (Site B)</text>
<text xml:space="preserve" text-anchor="middle" x="207.86" y="-488.55" font-family="Helvetica,sans-Serif" font-size="11.00">Connections with Embedded IPsec Tunnel Details</text>
<g id="clust1" class="cluster">
<title>cluster_site_nebius</title>
<path fill="none" stroke="#7f7f7f" d="M32.23,-297C32.23,-297 393.1,-297 393.1,-297 399.1,-297 405.1,-303 405.1,-309 405.1,-309 405.1,-463 405.1,-463 405.1,-469 399.1,-475 393.1,-475 393.1,-475 32.23,-475 32.23,-475 26.23,-475 20.23,-469 20.23,-463 20.23,-463 20.23,-309 20.23,-309 20.23,-303 26.23,-297 32.23,-297"/>
<text xml:space="preserve" text-anchor="middle" x="212.67" y="-460.55" font-family="Helvetica,sans-Serif" font-size="11.00">Site A: Nebius</text>
</g>
<g id="clust4" class="cluster">
<title>cluster_site_gcp</title>
<path fill="none" stroke="#4f94cd" d="M265.48,-8C265.48,-8 395.73,-8 395.73,-8 401.73,-8 407.73,-14 407.73,-20 407.73,-20 407.73,-277 407.73,-277 407.73,-283 401.73,-289 395.73,-289 395.73,-289 265.48,-289 265.48,-289 259.48,-289 253.48,-283 253.48,-277 253.48,-277 253.48,-20 253.48,-20 253.48,-14 259.48,-8 265.48,-8"/>
<text xml:space="preserve" text-anchor="middle" x="330.6" y="-274.55" font-family="Helvetica,sans-Serif" font-size="11.00">Site B: GCP</text>
</g>
<!-- nebius_gw -->
<g id="node1" class="node">
<title>nebius_gw</title>
<path fill="none" stroke="black" d="M163.48,-358.5C163.48,-358.5 40.23,-358.5 40.23,-358.5 34.23,-358.5 28.23,-352.5 28.23,-346.5 28.23,-346.5 28.23,-317.5 28.23,-317.5 28.23,-311.5 34.23,-305.5 40.23,-305.5 40.23,-305.5 163.48,-305.5 163.48,-305.5 169.48,-305.5 175.48,-311.5 175.48,-317.5 175.48,-317.5 175.48,-346.5 175.48,-346.5 175.48,-352.5 169.48,-358.5 163.48,-358.5"/>
<text xml:space="preserve" text-anchor="middle" x="101.85" y="-341.2" font-family="Helvetica,sans-Serif" font-size="14.00">Nebius VPN Gateway</text>
<text xml:space="preserve" text-anchor="middle" x="101.85" y="-326.2" font-family="Helvetica,sans-Serif" font-size="14.00">Instance: vpngw</text>
<text xml:space="preserve" text-anchor="middle" x="101.85" y="-311.2" font-family="Helvetica,sans-Serif" font-size="14.00">ASN: 65010</text>
</g>
<!-- neb_if0 -->
<g id="node2" class="node">
<title>neb_if0</title>
<path fill="none" stroke="black" d="M385.1,-349C385.1,-349 276.1,-349 276.1,-349 270.1,-349 264.1,-343 264.1,-337 264.1,-337 264.1,-323 264.1,-323 264.1,-317 270.1,-311 276.1,-311 276.1,-311 385.1,-311 385.1,-311 391.1,-311 397.1,-317 397.1,-323 397.1,-323 397.1,-337 397.1,-337 397.1,-343 391.1,-349 385.1,-349"/>
<text xml:space="preserve" text-anchor="middle" x="330.6" y="-331.7" font-family="Helvetica,sans-Serif" font-size="14.00">neb&#45;if0</text>
<text xml:space="preserve" text-anchor="middle" x="330.6" y="-316.7" font-family="Helvetica,sans-Serif" font-size="14.00">Public IP: 84.2.2.10</text>
</g>
<!-- nebius_gw&#45;&gt;neb_if0 -->
<g id="edge1" class="edge">
<title>nebius_gw&#45;&gt;neb_if0</title>
<path fill="none" stroke="black" d="M175.85,-331.36C204.07,-331.11 236.14,-330.82 263.65,-330.58"/>
</g>
<!-- neb_if1 -->
<g id="node3" class="node">
<title>neb_if1</title>
<path fill="none" stroke="black" d="M385.1,-437C385.1,-437 276.1,-437 276.1,-437 270.1,-437 264.1,-431 264.1,-425 264.1,-425 264.1,-411 264.1,-411 264.1,-405 270.1,-399 276.1,-399 276.1,-399 385.1,-399 385.1,-399 391.1,-399 397.1,-405 397.1,-411 397.1,-411 397.1,-425 397.1,-425 397.1,-431 391.1,-437 385.1,-437"/>
<text xml:space="preserve" text-anchor="middle" x="330.6" y="-419.7" font-family="Helvetica,sans-Serif" font-size="14.00">neb&#45;if1</text>
<text xml:space="preserve" text-anchor="middle" x="330.6" y="-404.7" font-family="Helvetica,sans-Serif" font-size="14.00">Public IP: 84.2.2.11</text>
</g>
<!-- nebius_gw&#45;&gt;neb_if1 -->
<g id="edge2" class="edge">
<title>nebius_gw&#45;&gt;neb_if1</title>
<path fill="none" stroke="black" d="M173.98,-358.97C207.88,-371.83 247.66,-386.92 278.51,-398.62"/>
</g>
<!-- gcp_if0 -->
<g id="node5" class="node">
<title>gcp_if0</title>
<path fill="none" stroke="black" d="M387.73,-69.5C387.73,-69.5 273.48,-69.5 273.48,-69.5 267.48,-69.5 261.48,-63.5 261.48,-57.5 261.48,-57.5 261.48,-28.5 261.48,-28.5 261.48,-22.5 267.48,-16.5 273.48,-16.5 273.48,-16.5 387.73,-16.5 387.73,-16.5 393.73,-16.5 399.73,-22.5 399.73,-28.5 399.73,-28.5 399.73,-57.5 399.73,-57.5 399.73,-63.5 393.73,-69.5 387.73,-69.5"/>
<text xml:space="preserve" text-anchor="middle" x="330.6" y="-52.2" font-family="Helvetica,sans-Serif" font-size="14.00">gcp&#45;if0</text>
<text xml:space="preserve" text-anchor="middle" x="330.6" y="-37.2" font-family="Helvetica,sans-Serif" font-size="14.00">External IP: 35.1.1.1</text>
<text xml:space="preserve" text-anchor="middle" x="330.6" y="-22.2" font-family="Helvetica,sans-Serif" font-size="14.00">ASN: 16550</text>
</g>
<!-- nebius_gw&#45;&gt;gcp_if0 -->
<!-- neb_if0&#45;&gt;gcp_if0 -->
<g id="edge4" class="edge">
<title>neb_if0&#45;&gt;gcp_if0</title>
<path fill="none" stroke="#36648b" d="M263.84,-315.28C244,-307.26 224.83,-294.92 214.48,-276 181.22,-215.17 181.69,-181.09 214.48,-120 224.68,-101 241.86,-85.89 259.93,-74.27"/>
<polygon fill="#36648b" stroke="#36648b" points="261.18,-76.37 265.86,-70.62 258.62,-72.2 261.18,-76.37"/>
<text xml:space="preserve" text-anchor="middle" x="95.62" y="-171.9" font-family="Helvetica,sans-Serif" font-size="9.00">conn neb&#45;if0 ↔ gcp&#45;if0</text>
<text xml:space="preserve" text-anchor="middle" x="95.62" y="-161.4" font-family="Helvetica,sans-Serif" font-size="9.00">Tunnel neb&#45;if0↔gcp&#45;if0 (IPsec)</text>
<text xml:space="preserve" text-anchor="middle" x="95.62" y="-150.9" font-family="Helvetica,sans-Serif" font-size="9.00">APIPA 169.254.100.0/30 &#160;(Nebius .2 ↔ .1 GCP)</text>
<text xml:space="preserve" text-anchor="middle" x="95.62" y="-140.4" font-family="Helvetica,sans-Serif" font-size="9.00">IKEv2 AES256/SHA256 &#160;DPD 10/30</text>
<text xml:space="preserve" text-anchor="middle" x="95.62" y="-130.65" font-family="Helvetica,sans-Serif" font-size="9.00">BGP: Nebius → GCP advertises 10.10.0.0/16</text>
<text xml:space="preserve" text-anchor="middle" x="95.62" y="-119.4" font-family="Helvetica,sans-Serif" font-size="9.00">BGP: GCP → Nebius advertises 10.20.0.0/16</text>
</g>
<!-- gcp_if1 -->
<g id="node6" class="node">
<title>gcp_if1</title>
<path fill="none" stroke="black" d="M387.73,-172.5C387.73,-172.5 273.48,-172.5 273.48,-172.5 267.48,-172.5 261.48,-166.5 261.48,-160.5 261.48,-160.5 261.48,-131.5 261.48,-131.5 261.48,-125.5 267.48,-119.5 273.48,-119.5 273.48,-119.5 387.73,-119.5 387.73,-119.5 393.73,-119.5 399.73,-125.5 399.73,-131.5 399.73,-131.5 399.73,-160.5 399.73,-160.5 399.73,-166.5 393.73,-172.5 387.73,-172.5"/>
<text xml:space="preserve" text-anchor="middle" x="330.6" y="-155.2" font-family="Helvetica,sans-Serif" font-size="14.00">gcp&#45;if1</text>
<text xml:space="preserve" text-anchor="middle" x="330.6" y="-140.2" font-family="Helvetica,sans-Serif" font-size="14.00">External IP: 35.1.1.2</text>
<text xml:space="preserve" text-anchor="middle" x="330.6" y="-125.2" font-family="Helvetica,sans-Serif" font-size="14.00">ASN: 16550</text>
</g>
<!-- neb_if1&#45;&gt;gcp_if1 -->
<g id="edge5" class="edge">
<title>neb_if1&#45;&gt;gcp_if1</title>
<path fill="none" stroke="#36648b" d="M272.76,-398.5C250.25,-387.7 226.91,-371.74 214.48,-349 187.61,-299.87 187.99,-272.34 214.48,-223 224.68,-204 241.86,-188.89 259.93,-177.27"/>
<polygon fill="#36648b" stroke="#36648b" points="261.18,-179.37 265.86,-173.62 258.62,-175.2 261.18,-179.37"/>
<text xml:space="preserve" text-anchor="middle" x="99.04" y="-272.12" font-family="Helvetica,sans-Serif" font-size="9.00">conn neb&#45;if1 ↔ gcp&#45;if1</text>
<text xml:space="preserve" text-anchor="middle" x="99.04" y="-261.62" font-family="Helvetica,sans-Serif" font-size="9.00">Tunnel neb&#45;if1↔gcp&#45;if1 (IPsec)</text>
<text xml:space="preserve" text-anchor="middle" x="99.04" y="-251.12" font-family="Helvetica,sans-Serif" font-size="9.00">APIPA 169.254.101.0/30 &#160;(Nebius .2 ↔ .1 GCP)</text>
<text xml:space="preserve" text-anchor="middle" x="99.04" y="-240.62" font-family="Helvetica,sans-Serif" font-size="9.00">IKEv2 AES256/SHA256 &#160;DPD 10/30</text>
<text xml:space="preserve" text-anchor="middle" x="99.04" y="-230.87" font-family="Helvetica,sans-Serif" font-size="9.00">BGP: Nebius → GCP advertises 10.10.0.0/16</text>
<text xml:space="preserve" text-anchor="middle" x="99.04" y="-219.62" font-family="Helvetica,sans-Serif" font-size="9.00">BGP: GCP → Nebius advertises 10.20.0.0/16</text>
</g>
<!-- nebius_subnet -->
<g id="node4" class="node">
<title>nebius_subnet</title>
<path fill="none" stroke="#999999" d="M142.1,-447C142.1,-447 61.6,-447 61.6,-447 55.6,-447 49.6,-441 49.6,-435 49.6,-435 49.6,-421 49.6,-421 49.6,-415 55.6,-409 61.6,-409 61.6,-409 142.1,-409 142.1,-409 148.1,-409 154.1,-415 154.1,-421 154.1,-421 154.1,-435 154.1,-435 154.1,-441 148.1,-447 142.1,-447"/>
<text xml:space="preserve" text-anchor="middle" x="101.85" y="-429.7" font-family="Helvetica,sans-Serif" font-size="14.00">Nebius Subnet</text>
<text xml:space="preserve" text-anchor="middle" x="101.85" y="-414.7" font-family="Helvetica,sans-Serif" font-size="14.00">10.10.0.0/16</text>
</g>
<!-- gcp_subnet -->
<g id="node7" class="node">
<title>gcp_subnet</title>
<path fill="none" stroke="#4f94cd" d="M364.85,-261C364.85,-261 296.35,-261 296.35,-261 290.35,-261 284.35,-255 284.35,-249 284.35,-249 284.35,-235 284.35,-235 284.35,-229 290.35,-223 296.35,-223 296.35,-223 364.85,-223 364.85,-223 370.85,-223 376.85,-229 376.85,-235 376.85,-235 376.85,-249 376.85,-249 376.85,-255 370.85,-261 364.85,-261"/>
<text xml:space="preserve" text-anchor="middle" x="330.6" y="-243.7" font-family="Helvetica,sans-Serif" font-size="14.00">GCP Subnet</text>
<text xml:space="preserve" text-anchor="middle" x="330.6" y="-228.7" font-family="Helvetica,sans-Serif" font-size="14.00">10.20.0.0/16</text>
</g>
</g>
</svg>
