<?xml version="1.0" encoding="UTF-8" standalone="no"?>
<!DOCTYPE svg PUBLIC "-//W3C//DTD SVG 1.1//EN"
 "http://www.w3.org/Graphics/SVG/1.1/DTD/svg11.dtd">
<!-- Generated by graphviz version 14.0.2 (20251019.1705)
 -->
<!-- Title: VPNConnections Pages: 1 -->
<svg width="852pt" height="557pt"
 viewBox="0.00 0.00 852.00 557.00" xmlns="http://www.w3.org/2000/svg" xmlns:xlink="http://www.w3.org/1999/xlink">
<g id="graph0" class="graph" transform="scale(1 1) rotate(0) translate(4 552.62)">
<title>VPNConnections</title>
<polygon fill="white" stroke="none" points="-4,4 -4,-552.62 847.75,-552.62 847.75,4 -4,4"/>
<text xml:space="preserve" text-anchor="middle" x="421.88" y="-534.17" font-family="Helvetica,sans-Serif" font-size="11.00">Site&#45;to&#45;Site VPN: Nebius (Site A) ↔ GCP (Site B)</text>
<text xml:space="preserve" text-anchor="middle" x="421.88" y="-521.42" font-family="Helvetica,sans-Serif" font-size="11.00">Connections with Embedded IPsec Tunnel Details</text>
<g id="clust1" class="cluster">
<title>cluster_site_nebius</title>
<path fill="none" stroke="#7f7f7f" d="M113.88,-336C113.88,-336 821.12,-336 821.12,-336 827.12,-336 833.12,-342 833.12,-348 833.12,-348 833.12,-454 833.12,-454 833.12,-460 827.12,-466 821.12,-466 821.12,-466 113.87,-466 113.87,-466 107.88,-466 101.88,-460 101.88,-454 101.88,-454 101.88,-348 101.88,-348 101.88,-342 107.88,-336 113.88,-336"/>
<text xml:space="preserve" text-anchor="middle" x="467.5" y="-451.55" font-family="Helvetica,sans-Serif" font-size="11.00">Site A: Nebius</text>
</g>
<g id="clust3" class="cluster">
<title>cluster_site_gcp</title>
<path fill="none" stroke="#4f94cd" d="M693.5,-8C693.5,-8 823.75,-8 823.75,-8 829.75,-8 835.75,-14 835.75,-20 835.75,-20 835.75,-157 835.75,-157 835.75,-163 829.75,-169 823.75,-169 823.75,-169 693.5,-169 693.5,-169 687.5,-169 681.5,-163 681.5,-157 681.5,-157 681.5,-20 681.5,-20 681.5,-14 687.5,-8 693.5,-8"/>
<text xml:space="preserve" text-anchor="middle" x="758.62" y="-154.55" font-family="Helvetica,sans-Serif" font-size="11.00">Site B: GCP</text>
</g>
<!-- nebius_gw -->
<g id="node1" class="node">
<title>nebius_gw</title>
<path fill="none" stroke="black" d="M245.12,-397.5C245.12,-397.5 121.88,-397.5 121.88,-397.5 115.88,-397.5 109.88,-391.5 109.88,-385.5 109.88,-385.5 109.88,-356.5 109.88,-356.5 109.88,-350.5 115.88,-344.5 121.88,-344.5 121.88,-344.5 245.12,-344.5 245.12,-344.5 251.12,-344.5 257.12,-350.5 257.12,-356.5 257.12,-356.5 257.12,-385.5 257.12,-385.5 257.12,-391.5 251.12,-397.5 245.12,-397.5"/>
<text xml:space="preserve" text-anchor="middle" x="183.5" y="-380.2" font-family="Helvetica,sans-Serif" font-size="14.00">Nebius VPN Gateway</text>
<text xml:space="preserve" text-anchor="middle" x="183.5" y="-365.2" font-family="Helvetica,sans-Serif" font-size="14.00">Instance: vpngw</text>
<text xml:space="preserve" text-anchor="middle" x="183.5" y="-350.2" font-family="Helvetica,sans-Serif" font-size="14.00">ASN: 65010</text>
</g>
<!-- neb_if0 -->
<g id="node2" class="node">
<title>neb_if0</title>
<path fill="none" stroke="black" d="M813.12,-382C813.12,-382 704.12,-382 704.12,-382 698.12,-382 692.12,-376 692.12,-370 692.12,-370 692.12,-356 692.12,-356 692.12,-350 698.12,-344 704.12,-344 704.12,-344 813.12,-344 813.12,-344 819.12,-344 825.12,-350 825.12,-356 825.12,-356 825.12,-370 825.12,-370 825.12,-376 819.12,-382 813.12,-382"/>
<text xml:space="preserve" text-anchor="middle" x="758.62" y="-364.7" font-family="Helvetica,sans-Serif" font-size="14.00">neb&#45;if0</text>
<text xml:space="preserve" text-anchor="middle" x="758.62" y="-349.7" font-family="Helvetica,sans-Serif" font-size="14.00">Public IP: 84.2.2.10</text>
</g>
<!-- nebius_gw&#45;&gt;neb_if0 -->
<g id="edge1" class="edge">
<title>nebius_gw&#45;&gt;neb_if0</title>
<path fill="none" stroke="black" stroke-dasharray="1,5" d="M257.38,-369.98C369.83,-368.41 583.94,-365.42 691.9,-363.92"/>
<text xml:space="preserve" text-anchor="middle" x="528.25" y="-369.88" font-family="Helvetica,sans-Serif" font-size="14.00">address #1</text>
</g>
<!-- neb_if1 -->
<g id="node3" class="node">
<title>neb_if1</title>
<path fill="none" stroke="black" d="M813.12,-438C813.12,-438 704.12,-438 704.12,-438 698.12,-438 692.12,-432 692.12,-426 692.12,-426 692.12,-412 692.12,-412 692.12,-406 698.12,-400 704.12,-400 704.12,-400 813.12,-400 813.12,-400 819.12,-400 825.12,-406 825.12,-412 825.12,-412 825.12,-426 825.12,-426 825.12,-432 819.12,-438 813.12,-438"/>
<text xml:space="preserve" text-anchor="middle" x="758.62" y="-420.7" font-family="Helvetica,sans-Serif" font-size="14.00">neb&#45;if1</text>
<text xml:space="preserve" text-anchor="middle" x="758.62" y="-405.7" font-family="Helvetica,sans-Serif" font-size="14.00">Public IP: 84.2.2.11</text>
</g>
<!-- nebius_gw&#45;&gt;neb_if1 -->
<g id="edge2" class="edge">
<title>nebius_gw&#45;&gt;neb_if1</title>
<path fill="none" stroke="black" stroke-dasharray="1,5" d="M257.38,-377.1C369.83,-386.52 583.94,-404.45 691.9,-413.5"/>
<text xml:space="preserve" text-anchor="middle" x="528.25" y="-412.65" font-family="Helvetica,sans-Serif" font-size="14.00">address #2</text>
</g>
<!-- gcp_if0 -->
<g id="node4" class="node">
<title>gcp_if0</title>
<path fill="none" stroke="black" d="M815.75,-69.5C815.75,-69.5 701.5,-69.5 701.5,-69.5 695.5,-69.5 689.5,-63.5 689.5,-57.5 689.5,-57.5 689.5,-28.5 689.5,-28.5 689.5,-22.5 695.5,-16.5 701.5,-16.5 701.5,-16.5 815.75,-16.5 815.75,-16.5 821.75,-16.5 827.75,-22.5 827.75,-28.5 827.75,-28.5 827.75,-57.5 827.75,-57.5 827.75,-63.5 821.75,-69.5 815.75,-69.5"/>
<text xml:space="preserve" text-anchor="middle" x="758.62" y="-52.2" font-family="Helvetica,sans-Serif" font-size="14.00">gcp&#45;if0</text>
<text xml:space="preserve" text-anchor="middle" x="758.62" y="-37.2" font-family="Helvetica,sans-Serif" font-size="14.00">External IP: 35.1.1.1</text>
<text xml:space="preserve" text-anchor="middle" x="758.62" y="-22.2" font-family="Helvetica,sans-Serif" font-size="14.00">ASN: 16550</text>
</g>
<!-- nebius_gw&#45;&gt;gcp_if0 -->
<!-- neb_if0&#45;&gt;gcp_if0 -->
<g id="edge4" class="edge">
<title>neb_if0&#45;&gt;gcp_if0</title>
<path fill="none" stroke="#36648b" d="M691.65,-378.51C614.34,-391.98 489.37,-399.27 423.4,-325.5 327.6,-218.4 555.43,-115.62 681.65,-69.04"/>
<polygon fill="#36648b" stroke="#36648b" points="682.28,-71.42 688.01,-66.71 680.6,-66.81 682.28,-71.42"/>
<text xml:space="preserve" text-anchor="middle" x="528.25" y="-312.2" font-family="Helvetica,sans-Serif" font-size="14.00">conn neb&#45;if0 ↔ gcp&#45;if0</text>
<text xml:space="preserve" text-anchor="middle" x="528.25" y="-295.7" font-family="Helvetica,sans-Serif" font-size="14.00">Tunnel neb&#45;if0↔gcp&#45;if0 (IPsec)</text>
<text xml:space="preserve" text-anchor="middle" x="528.25" y="-279.2" font-family="Helvetica,sans-Serif" font-size="14.00">APIPA 169.254.100.0/30 &#160;(Nebius .2 ↔ .1 GCP)</text>
<text xml:space="preserve" text-anchor="middle" x="528.25" y="-262.7" font-family="Helvetica,sans-Serif" font-size="14.00">IKEv2 AES256/SHA256 &#160;DPD 10/30</text>
<text xml:space="preserve" text-anchor="middle" x="528.25" y="-247.7" font-family="Helvetica,sans-Serif" font-size="14.00">BGP 16550 ↔ 65010 &#160;Advertise 10.10.0.0/16</text>
</g>
<!-- gcp_if1 -->
<g id="node5" class="node">
<title>gcp_if1</title>
<path fill="none" stroke="black" d="M815.75,-140.5C815.75,-140.5 701.5,-140.5 701.5,-140.5 695.5,-140.5 689.5,-134.5 689.5,-128.5 689.5,-128.5 689.5,-99.5 689.5,-99.5 689.5,-93.5 695.5,-87.5 701.5,-87.5 701.5,-87.5 815.75,-87.5 815.75,-87.5 821.75,-87.5 827.75,-93.5 827.75,-99.5 827.75,-99.5 827.75,-128.5 827.75,-128.5 827.75,-134.5 821.75,-140.5 815.75,-140.5"/>
<text xml:space="preserve" text-anchor="middle" x="758.62" y="-123.2" font-family="Helvetica,sans-Serif" font-size="14.00">gcp&#45;if1</text>
<text xml:space="preserve" text-anchor="middle" x="758.62" y="-108.2" font-family="Helvetica,sans-Serif" font-size="14.00">External IP: 35.1.1.2</text>
<text xml:space="preserve" text-anchor="middle" x="758.62" y="-93.2" font-family="Helvetica,sans-Serif" font-size="14.00">ASN: 16550</text>
</g>
<!-- neb_if1&#45;&gt;gcp_if1 -->
<g id="edge5" class="edge">
<title>neb_if1&#45;&gt;gcp_if1</title>
<path fill="none" stroke="#36648b" d="M693.05,-399.64C570.89,-360.44 329.05,-266.19 423.4,-158.5 485.82,-87.24 602.75,-88.13 680.66,-98.53"/>
<polygon fill="#36648b" stroke="#36648b" points="680.25,-100.95 687.52,-99.5 680.93,-96.1 680.25,-100.95"/>
<text xml:space="preserve" text-anchor="middle" x="528.25" y="-226.2" font-family="Helvetica,sans-Serif" font-size="14.00">conn neb&#45;if1 ↔ gcp&#45;if1</text>
<text xml:space="preserve" text-anchor="middle" x="528.25" y="-209.7" font-family="Helvetica,sans-Serif" font-size="14.00">Tunnel neb&#45;if1↔gcp&#45;if1 (IPsec)</text>
<text xml:space="preserve" text-anchor="middle" x="528.25" y="-193.2" font-family="Helvetica,sans-Serif" font-size="14.00">APIPA 169.254.101.0/30 &#160;(Nebius .2 ↔ .1 GCP)</text>
<text xml:space="preserve" text-anchor="middle" x="528.25" y="-176.7" font-family="Helvetica,sans-Serif" font-size="14.00">IKEv2 AES256/SHA256 &#160;DPD 10/30</text>
<text xml:space="preserve" text-anchor="middle" x="528.25" y="-161.7" font-family="Helvetica,sans-Serif" font-size="14.00">BGP 16550 ↔ 65010 &#160;Advertise 10.10.0.0/16</text>
</g>
<!-- legend -->
<g id="node6" class="node">
<title>legend</title>
<polygon fill="none" stroke="black" points="361,-515.88 0,-515.88 0,-474.12 367,-474.12 367,-509.88 361,-515.88"/>
<polyline fill="none" stroke="black" points="361,-515.88 361,-509.88"/>
<polyline fill="none" stroke="black" points="367,-509.88 361,-509.88"/>
<text xml:space="preserve" text-anchor="middle" x="183.5" y="-502.38" font-family="Helvetica,sans-Serif" font-size="10.00">Site A = Nebius &#160;| &#160;Site B = GCP</text>
<text xml:space="preserve" text-anchor="middle" x="183.5" y="-491.12" font-family="Helvetica,sans-Serif" font-size="10.00">Each labeled edge represents one Connection, containing a single IPsec Tunnel.</text>
<text xml:space="preserve" text-anchor="middle" x="183.5" y="-479.88" font-family="Helvetica,sans-Serif" font-size="10.00">Dotted lines show Nebius GW bound to its two public IPs.</text>
</g>
</g>
</svg>
