<?xml version="1.0" encoding="UTF-8" standalone="no"?>
<!DOCTYPE svg PUBLIC "-//W3C//DTD SVG 1.1//EN"
 "http://www.w3.org/Graphics/SVG/1.1/DTD/svg11.dtd">
<!-- Generated by graphviz version 14.0.2 (20251019.1705)
 -->
<!-- Title: NebiusVPNGW Pages: 1 -->
<svg width="1181pt" height="831pt"
 viewBox="0.00 0.00 1181.00 831.00" xmlns="http://www.w3.org/2000/svg" xmlns:xlink="http://www.w3.org/1999/xlink">
<g id="graph0" class="graph" transform="scale(1 1) rotate(0) translate(4 827.25)">
<title>NebiusVPNGW</title>
<polygon fill="white" stroke="none" points="-4,4 -4,-827.25 1176.75,-827.25 1176.75,4 -4,4"/>
<text xml:space="preserve" text-anchor="middle" x="586.38" y="-809.75" font-family="Helvetica,sans-Serif" font-size="10.00">Nebius VM&#45;based VPN Gateway – Architecture Overview</text>
<g id="clust1" class="cluster">
<title>cluster_operator</title>
<path fill="none" stroke="#999999" d="M20,-647C20,-647 542,-647 542,-647 548,-647 554,-653 554,-659 554,-659 554,-784 554,-784 554,-790 548,-796 542,-796 542,-796 20,-796 20,-796 14,-796 8,-790 8,-784 8,-784 8,-659 8,-659 8,-653 14,-647 20,-647"/>
<text xml:space="preserve" text-anchor="middle" x="281" y="-782.5" font-family="Helvetica,sans-Serif" font-size="10.00">Operator Laptop / CI</text>
</g>
<g id="clust2" class="cluster">
<title>cluster_nebius</title>
<path fill="none" stroke="#666666" d="M37.38,-249C37.38,-249 899.5,-249 899.5,-249 905.5,-249 911.5,-255 911.5,-261 911.5,-261 911.5,-527 911.5,-527 911.5,-533 905.5,-539 899.5,-539 899.5,-539 37.38,-539 37.38,-539 31.38,-539 25.38,-533 25.38,-527 25.38,-527 25.38,-261 25.38,-261 25.38,-255 31.38,-249 37.38,-249"/>
<text xml:space="preserve" text-anchor="middle" x="468.44" y="-525.5" font-family="Helvetica,sans-Serif" font-size="10.00">Nebius Cloud</text>
</g>
<g id="clust3" class="cluster">
<title>cluster_vpc</title>
<path fill="none" stroke="#7f7f7f" d="M45.38,-257C45.38,-257 891.5,-257 891.5,-257 897.5,-257 903.5,-263 903.5,-269 903.5,-269 903.5,-500 903.5,-500 903.5,-506 897.5,-512 891.5,-512 891.5,-512 45.38,-512 45.38,-512 39.38,-512 33.38,-506 33.38,-500 33.38,-500 33.38,-269 33.38,-269 33.38,-263 39.38,-257 45.38,-257"/>
<text xml:space="preserve" text-anchor="middle" x="468.44" y="-498.5" font-family="Helvetica,sans-Serif" font-size="10.00">VPC (Hub)</text>
</g>
<g id="clust4" class="cluster">
<title>cluster_vpn_subnet</title>
<path fill="none" stroke="#999999" d="M745.75,-265C745.75,-265 883.5,-265 883.5,-265 889.5,-265 895.5,-271 895.5,-277 895.5,-277 895.5,-473 895.5,-473 895.5,-479 889.5,-485 883.5,-485 883.5,-485 745.75,-485 745.75,-485 739.75,-485 733.75,-479 733.75,-473 733.75,-473 733.75,-277 733.75,-277 733.75,-271 739.75,-265 745.75,-265"/>
<text xml:space="preserve" text-anchor="middle" x="814.62" y="-471.5" font-family="Helvetica,sans-Serif" font-size="10.00">VPN Subnet</text>
</g>
<g id="clust6" class="cluster">
<title>cluster_workloads</title>
<path fill="none" stroke="#999999" d="M53.38,-324C53.38,-324 125.88,-324 125.88,-324 131.88,-324 137.88,-330 137.88,-336 137.88,-336 137.88,-383 137.88,-383 137.88,-389 131.88,-395 125.88,-395 125.88,-395 53.38,-395 53.38,-395 47.38,-395 41.38,-389 41.38,-383 41.38,-383 41.38,-336 41.38,-336 41.38,-330 47.38,-324 53.38,-324"/>
<text xml:space="preserve" text-anchor="middle" x="89.62" y="-381.5" font-family="Helvetica,sans-Serif" font-size="10.00">Workload Subnets</text>
</g>
<g id="clust7" class="cluster">
<title>cluster_peers</title>
<path fill="none" stroke="#7f7f7f" d="M405,-8C405,-8 514.25,-8 514.25,-8 520.25,-8 526.25,-14 526.25,-20 526.25,-20 526.25,-229 526.25,-229 526.25,-235 520.25,-241 514.25,-241 514.25,-241 405,-241 405,-241 399,-241 393,-235 393,-229 393,-229 393,-20 393,-20 393,-14 399,-8 405,-8"/>
<text xml:space="preserve" text-anchor="middle" x="459.62" y="-227.5" font-family="Helvetica,sans-Serif" font-size="10.00">External Peers</text>
</g>
<!-- orchestrator -->
<g id="node1" class="node">
<title>orchestrator</title>
<path fill="none" stroke="black" d="M151.25,-769C151.25,-769 28,-769 28,-769 22,-769 16,-763 16,-757 16,-757 16,-667 16,-667 16,-661 22,-655 28,-655 28,-655 151.25,-655 151.25,-655 157.25,-655 163.25,-661 163.25,-667 163.25,-667 163.25,-757 163.25,-757 163.25,-763 157.25,-769 151.25,-769"/>
<text xml:space="preserve" text-anchor="middle" x="89.62" y="-751.7" font-family="Helvetica,sans-Serif" font-size="14.00">Orchestrator CLI</text>
<text xml:space="preserve" text-anchor="middle" x="89.62" y="-736.7" font-family="Helvetica,sans-Serif" font-size="14.00">(nebius&#45;vpngw)</text>
<text xml:space="preserve" text-anchor="middle" x="89.62" y="-705.7" font-family="Helvetica,sans-Serif" font-size="14.00">&#45; Reads YAML config</text>
<text xml:space="preserve" text-anchor="middle" x="89.62" y="-690.7" font-family="Helvetica,sans-Serif" font-size="14.00">&#45; Merges peer configs</text>
<text xml:space="preserve" text-anchor="middle" x="89.62" y="-675.7" font-family="Helvetica,sans-Serif" font-size="14.00">&#45; Plans per&#45;VM config</text>
<text xml:space="preserve" text-anchor="middle" x="89.62" y="-660.7" font-family="Helvetica,sans-Serif" font-size="14.00">&#45; Idempotent apply</text>
</g>
<!-- cfg_yaml -->
<g id="node2" class="node">
<title>cfg_yaml</title>
<polygon fill="none" stroke="black" points="540,-760 373.25,-760 373.25,-722 546,-722 546,-754 540,-760"/>
<polyline fill="none" stroke="black" points="540,-760 540,-754"/>
<polyline fill="none" stroke="black" points="546,-754 540,-754"/>
<text xml:space="preserve" text-anchor="middle" x="459.62" y="-742.7" font-family="Helvetica,sans-Serif" font-size="14.00">nebius&#45;vpngw&#45;config.yaml</text>
<text xml:space="preserve" text-anchor="middle" x="459.62" y="-727.7" font-family="Helvetica,sans-Serif" font-size="14.00">(source of truth)</text>
</g>
<!-- orchestrator&#45;&gt;cfg_yaml -->
<g id="edge1" class="edge">
<title>orchestrator&#45;&gt;cfg_yaml</title>
<path fill="none" stroke="black" stroke-dasharray="5,2" d="M163.33,-717.73C223.55,-722.48 309.25,-729.23 372.83,-734.24"/>
<text xml:space="preserve" text-anchor="middle" x="268.25" y="-734.13" font-family="Helvetica,sans-Serif" font-size="14.00">read</text>
</g>
<!-- peer_files -->
<g id="node3" class="node">
<title>peer_files</title>
<polygon fill="none" stroke="black" points="536.62,-704 376.62,-704 376.62,-666 542.62,-666 542.62,-698 536.62,-704"/>
<polyline fill="none" stroke="black" points="536.62,-704 536.62,-698"/>
<polyline fill="none" stroke="black" points="542.62,-698 536.62,-698"/>
<text xml:space="preserve" text-anchor="middle" x="459.62" y="-686.7" font-family="Helvetica,sans-Serif" font-size="14.00">Peer config file(s)</text>
<text xml:space="preserve" text-anchor="middle" x="459.62" y="-671.7" font-family="Helvetica,sans-Serif" font-size="14.00">(GCP/AWS/Azure/Cisco)</text>
</g>
<!-- orchestrator&#45;&gt;peer_files -->
<g id="edge2" class="edge">
<title>orchestrator&#45;&gt;peer_files</title>
<path fill="none" stroke="black" stroke-dasharray="5,2" d="M163.27,-700.98C169.34,-700.24 175.4,-699.57 181.25,-699 246.64,-692.67 321,-689.12 376.25,-687.17"/>
<text xml:space="preserve" text-anchor="middle" x="268.25" y="-700.7" font-family="Helvetica,sans-Serif" font-size="14.00">read</text>
</g>
<!-- sdk -->
<g id="node12" class="node">
<title>sdk</title>
<polygon fill="none" stroke="black" points="515.62,-585 403.62,-585 403.62,-581 399.62,-581 399.62,-577 403.62,-577 403.62,-555 399.62,-555 399.62,-551 403.62,-551 403.62,-547 515.62,-547 515.62,-585"/>
<polyline fill="none" stroke="black" points="403.62,-581 407.62,-581 407.62,-577 403.62,-577"/>
<polyline fill="none" stroke="black" points="403.62,-555 407.62,-555 407.62,-551 403.62,-551"/>
<text xml:space="preserve" text-anchor="middle" x="459.62" y="-567.7" font-family="Helvetica,sans-Serif" font-size="14.00">Nebius SDK</text>
<text xml:space="preserve" text-anchor="middle" x="459.62" y="-552.7" font-family="Helvetica,sans-Serif" font-size="14.00">(Compute/VPC)</text>
</g>
<!-- orchestrator&#45;&gt;sdk -->
<g id="edge4" class="edge">
<title>orchestrator&#45;&gt;sdk</title>
<path fill="none" stroke="black" d="M118.58,-654.7C133.62,-630.2 154.62,-603.87 181.25,-589 245.92,-552.89 332.59,-551.78 391.73,-556.7"/>
<polygon fill="black" stroke="black" points="391.39,-560.18 401.66,-557.61 392.03,-553.21 391.39,-560.18"/>
<text xml:space="preserve" text-anchor="middle" x="268.25" y="-605.7" font-family="Helvetica,sans-Serif" font-size="14.00">Create/Recreate VMs</text>
<text xml:space="preserve" text-anchor="middle" x="268.25" y="-590.7" font-family="Helvetica,sans-Serif" font-size="14.00">Manage routes</text>
</g>
<!-- ssh -->
<g id="node13" class="node">
<title>ssh</title>
<polygon fill="none" stroke="black" points="497.25,-639 422,-639 422,-635 418,-635 418,-631 422,-631 422,-611 418,-611 418,-607 422,-607 422,-603 497.25,-603 497.25,-639"/>
<polyline fill="none" stroke="black" points="422,-635 426,-635 426,-631 422,-631"/>
<polyline fill="none" stroke="black" points="422,-611 426,-611 426,-607 422,-607"/>
<text xml:space="preserve" text-anchor="middle" x="459.62" y="-615.2" font-family="Helvetica,sans-Serif" font-size="14.00">SSH/SCP</text>
</g>
<!-- orchestrator&#45;&gt;ssh -->
<g id="edge5" class="edge">
<title>orchestrator&#45;&gt;ssh</title>
<path fill="none" stroke="black" d="M163.65,-661.5C169.46,-658.66 175.36,-656.11 181.25,-654 257.97,-626.53 353.49,-620.9 410.07,-620.28"/>
<polygon fill="black" stroke="black" points="410.04,-623.78 420.02,-620.23 410,-616.78 410.04,-623.78"/>
<text xml:space="preserve" text-anchor="middle" x="268.25" y="-670.7" font-family="Helvetica,sans-Serif" font-size="14.00">Push per&#45;VM resolved config</text>
<text xml:space="preserve" text-anchor="middle" x="268.25" y="-655.7" font-family="Helvetica,sans-Serif" font-size="14.00">Trigger agent reload</text>
</g>
<!-- gw0 -->
<g id="node4" class="node">
<title>gw0</title>
<path fill="none" stroke="black" d="M875.5,-356.5C875.5,-356.5 753.75,-356.5 753.75,-356.5 747.75,-356.5 741.75,-350.5 741.75,-344.5 741.75,-344.5 741.75,-285.5 741.75,-285.5 741.75,-279.5 747.75,-273.5 753.75,-273.5 753.75,-273.5 875.5,-273.5 875.5,-273.5 881.5,-273.5 887.5,-279.5 887.5,-285.5 887.5,-285.5 887.5,-344.5 887.5,-344.5 887.5,-350.5 881.5,-356.5 875.5,-356.5"/>
<text xml:space="preserve" text-anchor="middle" x="814.62" y="-339.2" font-family="Helvetica,sans-Serif" font-size="14.00">GW VM 0</text>
<text xml:space="preserve" text-anchor="middle" x="814.62" y="-324.2" font-family="Helvetica,sans-Serif" font-size="14.00">Ubuntu 22.04</text>
<text xml:space="preserve" text-anchor="middle" x="814.62" y="-309.2" font-family="Helvetica,sans-Serif" font-size="14.00">&#45; strongSwan</text>
<text xml:space="preserve" text-anchor="middle" x="814.62" y="-294.2" font-family="Helvetica,sans-Serif" font-size="14.00">&#45; FRR (bgpd)</text>
<text xml:space="preserve" text-anchor="middle" x="814.62" y="-279.2" font-family="Helvetica,sans-Serif" font-size="14.00">&#45; nebius&#45;vpngw&#45;agent</text>
</g>
<!-- agent_legend -->
<g id="node14" class="node">
<title>agent_legend</title>
<path fill="none" stroke="#999999" d="M1160.75,-356.5C1160.75,-356.5 950.5,-356.5 950.5,-356.5 944.5,-356.5 938.5,-350.5 938.5,-344.5 938.5,-344.5 938.5,-285.5 938.5,-285.5 938.5,-279.5 944.5,-273.5 950.5,-273.5 950.5,-273.5 1160.75,-273.5 1160.75,-273.5 1166.75,-273.5 1172.75,-279.5 1172.75,-285.5 1172.75,-285.5 1172.75,-344.5 1172.75,-344.5 1172.75,-350.5 1166.75,-356.5 1160.75,-356.5"/>
<text xml:space="preserve" text-anchor="middle" x="1055.62" y="-339.2" font-family="Helvetica,sans-Serif" font-size="14.00">Agent (on GW VM)</text>
<text xml:space="preserve" text-anchor="middle" x="1055.62" y="-324.2" font-family="Helvetica,sans-Serif" font-size="14.00">&#45; Read resolved config</text>
<text xml:space="preserve" text-anchor="middle" x="1055.62" y="-309.2" font-family="Helvetica,sans-Serif" font-size="14.00">&#45; Render strongSwan &amp; FRR configs</text>
<text xml:space="preserve" text-anchor="middle" x="1055.62" y="-294.2" font-family="Helvetica,sans-Serif" font-size="14.00">&#45; Idempotent apply</text>
<text xml:space="preserve" text-anchor="middle" x="1055.62" y="-279.2" font-family="Helvetica,sans-Serif" font-size="14.00">&#45; Persist last&#45;applied hash</text>
</g>
<!-- gw0&#45;&gt;agent_legend -->
<g id="edge14" class="edge">
<title>gw0&#45;&gt;agent_legend</title>
<path fill="none" stroke="#999999" stroke-dasharray="1,5" d="M887.98,-315C903.92,-315 921.19,-315 938.37,-315"/>
</g>
<!-- gw1 -->
<g id="node5" class="node">
<title>gw1</title>
<path fill="none" stroke="#a6a6a6" d="M875.5,-457.5C875.5,-457.5 753.75,-457.5 753.75,-457.5 747.75,-457.5 741.75,-451.5 741.75,-445.5 741.75,-445.5 741.75,-386.5 741.75,-386.5 741.75,-380.5 747.75,-374.5 753.75,-374.5 753.75,-374.5 875.5,-374.5 875.5,-374.5 881.5,-374.5 887.5,-380.5 887.5,-386.5 887.5,-386.5 887.5,-445.5 887.5,-445.5 887.5,-451.5 881.5,-457.5 875.5,-457.5"/>
<text xml:space="preserve" text-anchor="middle" x="814.62" y="-440.2" font-family="Helvetica,sans-Serif" font-size="14.00">GW VM 1 (optional)</text>
<text xml:space="preserve" text-anchor="middle" x="814.62" y="-425.2" font-family="Helvetica,sans-Serif" font-size="14.00">Ubuntu 22.04</text>
<text xml:space="preserve" text-anchor="middle" x="814.62" y="-410.2" font-family="Helvetica,sans-Serif" font-size="14.00">&#45; strongSwan</text>
<text xml:space="preserve" text-anchor="middle" x="814.62" y="-395.2" font-family="Helvetica,sans-Serif" font-size="14.00">&#45; FRR (bgpd)</text>
<text xml:space="preserve" text-anchor="middle" x="814.62" y="-380.2" font-family="Helvetica,sans-Serif" font-size="14.00">&#45; nebius&#45;vpngw&#45;agent</text>
</g>
<!-- app1 -->
<g id="node6" class="node">
<title>app1</title>
<path fill="none" stroke="black" d="M117.88,-368C117.88,-368 61.38,-368 61.38,-368 55.38,-368 49.38,-362 49.38,-356 49.38,-356 49.38,-344 49.38,-344 49.38,-338 55.38,-332 61.38,-332 61.38,-332 117.88,-332 117.88,-332 123.88,-332 129.88,-338 129.88,-344 129.88,-344 129.88,-356 129.88,-356 129.88,-362 123.88,-368 117.88,-368"/>
<text xml:space="preserve" text-anchor="middle" x="89.62" y="-344.2" font-family="Helvetica,sans-Serif" font-size="14.00">App VM(s)</text>
</g>
<!-- rt -->
<g id="node7" class="node">
<title>rt</title>
<path fill="none" stroke="black" d="M514.88,-376.5C514.88,-376.5 404.38,-376.5 404.38,-376.5 398.38,-376.5 392.38,-370.5 392.38,-364.5 392.38,-364.5 392.38,-335.5 392.38,-335.5 392.38,-329.5 398.38,-323.5 404.38,-323.5 404.38,-323.5 514.88,-323.5 514.88,-323.5 520.88,-323.5 526.88,-329.5 526.88,-335.5 526.88,-335.5 526.88,-364.5 526.88,-364.5 526.88,-370.5 520.88,-376.5 514.88,-376.5"/>
<text xml:space="preserve" text-anchor="middle" x="459.62" y="-359.2" font-family="Helvetica,sans-Serif" font-size="14.00">Route Table</text>
<text xml:space="preserve" text-anchor="middle" x="459.62" y="-344.2" font-family="Helvetica,sans-Serif" font-size="14.00">&#45; Prefix &#45;&gt; next_hop</text>
<text xml:space="preserve" text-anchor="middle" x="459.62" y="-329.2" font-family="Helvetica,sans-Serif" font-size="14.00">&#45; No ECMP</text>
</g>
<!-- app1&#45;&gt;rt -->
<!-- rt&#45;&gt;gw0 -->
<g id="edge8" class="edge">
<title>rt&#45;&gt;gw0</title>
<path fill="none" stroke="black" d="M527.02,-343.42C584.55,-337.71 668.07,-329.43 730.13,-323.28"/>
<polygon fill="black" stroke="black" points="730.34,-326.78 739.95,-322.31 729.65,-319.81 730.34,-326.78"/>
<text xml:space="preserve" text-anchor="middle" x="643.88" y="-341.36" font-family="Helvetica,sans-Serif" font-size="14.00">next_hop = GW0 (active)</text>
</g>
<!-- rt&#45;&gt;gw1 -->
<g id="edge9" class="edge">
<title>rt&#45;&gt;gw1</title>
<path fill="none" stroke="#7f7f7f" stroke-dasharray="5,2" d="M527.02,-362.41C584.67,-373.19 668.42,-388.85 730.51,-400.46"/>
<polygon fill="#7f7f7f" stroke="#7f7f7f" points="729.49,-403.83 739.96,-402.23 730.78,-396.95 729.49,-403.83"/>
<text xml:space="preserve" text-anchor="middle" x="643.88" y="-400" font-family="Helvetica,sans-Serif" font-size="14.00">next_hop = GW1 (failover)</text>
</g>
<!-- gcp -->
<g id="node8" class="node">
<title>gcp</title>
<path fill="none" stroke="black" d="M497.62,-214C497.62,-214 421.62,-214 421.62,-214 415.62,-214 409.62,-208 409.62,-202 409.62,-202 409.62,-190 409.62,-190 409.62,-184 415.62,-178 421.62,-178 421.62,-178 497.62,-178 497.62,-178 503.62,-178 509.62,-184 509.62,-190 509.62,-190 509.62,-202 509.62,-202 509.62,-208 503.62,-214 497.62,-214"/>
<text xml:space="preserve" text-anchor="middle" x="459.62" y="-190.2" font-family="Helvetica,sans-Serif" font-size="14.00">GCP HA VPN</text>
</g>
<!-- gcp&#45;&gt;gw0 -->
<g id="edge10" class="edge">
<title>gcp&#45;&gt;gw0</title>
<path fill="none" stroke="#36648b" d="M509.87,-191.38C564.84,-188.35 655.1,-189.87 723.75,-223 743.79,-232.67 761.84,-248.75 776.42,-264.78"/>
<polygon fill="#36648b" stroke="#36648b" points="773.5,-266.77 782.72,-271.99 778.77,-262.16 773.5,-266.77"/>
<text xml:space="preserve" text-anchor="middle" x="643.88" y="-239.7" font-family="Helvetica,sans-Serif" font-size="14.00">IPsec/IKEv2</text>
<text xml:space="preserve" text-anchor="middle" x="643.88" y="-224.7" font-family="Helvetica,sans-Serif" font-size="14.00">BGP (APIPA)</text>
</g>
<!-- aws -->
<g id="node9" class="node">
<title>aws</title>
<path fill="none" stroke="black" d="M501.38,-160C501.38,-160 417.88,-160 417.88,-160 411.88,-160 405.88,-154 405.88,-148 405.88,-148 405.88,-136 405.88,-136 405.88,-130 411.88,-124 417.88,-124 417.88,-124 501.38,-124 501.38,-124 507.38,-124 513.38,-130 513.38,-136 513.38,-136 513.38,-148 513.38,-148 513.38,-154 507.38,-160 501.38,-160"/>
<text xml:space="preserve" text-anchor="middle" x="459.62" y="-136.2" font-family="Helvetica,sans-Serif" font-size="14.00">AWS S2S VPN</text>
</g>
<!-- aws&#45;&gt;gw0 -->
<g id="edge11" class="edge">
<title>aws&#45;&gt;gw0</title>
<path fill="none" stroke="#36648b" d="M513.7,-131.05C570.21,-122.4 660.08,-117.5 723.75,-157 761.7,-180.55 785.16,-226.35 798.55,-262.6"/>
<polygon fill="#36648b" stroke="#36648b" points="795.1,-263.33 801.72,-271.6 801.7,-261.01 795.1,-263.33"/>
<text xml:space="preserve" text-anchor="middle" x="643.88" y="-173.7" font-family="Helvetica,sans-Serif" font-size="14.00">IPsec/IKEv2</text>
<text xml:space="preserve" text-anchor="middle" x="643.88" y="-158.7" font-family="Helvetica,sans-Serif" font-size="14.00">BGP or static</text>
</g>
<!-- azure -->
<g id="node10" class="node">
<title>azure</title>
<path fill="none" stroke="black" d="M503.25,-106C503.25,-106 416,-106 416,-106 410,-106 404,-100 404,-94 404,-94 404,-82 404,-82 404,-76 410,-70 416,-70 416,-70 503.25,-70 503.25,-70 509.25,-70 515.25,-76 515.25,-82 515.25,-82 515.25,-94 515.25,-94 515.25,-100 509.25,-106 503.25,-106"/>
<text xml:space="preserve" text-anchor="middle" x="459.62" y="-82.2" font-family="Helvetica,sans-Serif" font-size="14.00">Azure VPN GW</text>
</g>
<!-- azure&#45;&gt;gw0 -->
<g id="edge12" class="edge">
<title>azure&#45;&gt;gw0</title>
<path fill="none" stroke="#36648b" d="M515.68,-81.67C582.76,-75.14 691.19,-68.71 723.75,-91 779.8,-129.37 800.9,-208.97 808.84,-262.19"/>
<polygon fill="#36648b" stroke="#36648b" points="805.36,-262.52 810.18,-271.95 812.29,-261.57 805.36,-262.52"/>
<text xml:space="preserve" text-anchor="middle" x="643.88" y="-107.7" font-family="Helvetica,sans-Serif" font-size="14.00">IPsec/IKEv2</text>
<text xml:space="preserve" text-anchor="middle" x="643.88" y="-92.7" font-family="Helvetica,sans-Serif" font-size="14.00">BGP or static</text>
</g>
<!-- onprem -->
<g id="node11" class="node">
<title>onprem</title>
<path fill="none" stroke="black" d="M506.25,-52C506.25,-52 413,-52 413,-52 407,-52 401,-46 401,-40 401,-40 401,-28 401,-28 401,-22 407,-16 413,-16 413,-16 506.25,-16 506.25,-16 512.25,-16 518.25,-22 518.25,-28 518.25,-28 518.25,-40 518.25,-40 518.25,-46 512.25,-52 506.25,-52"/>
<text xml:space="preserve" text-anchor="middle" x="459.62" y="-28.2" font-family="Helvetica,sans-Serif" font-size="14.00">On‑prem (Cisco)</text>
</g>
<!-- onprem&#45;&gt;gw0 -->
<g id="edge13" class="edge">
<title>onprem&#45;&gt;gw0</title>
<path fill="none" stroke="#36648b" d="M518.62,-18.18C576.48,-6.1 664.98,1.9 723.75,-42 792.15,-93.09 809.27,-197.84 813.1,-261.7"/>
<polygon fill="#36648b" stroke="#36648b" points="809.6,-261.8 813.59,-271.61 816.59,-261.45 809.6,-261.8"/>
<text xml:space="preserve" text-anchor="middle" x="643.88" y="-58.7" font-family="Helvetica,sans-Serif" font-size="14.00">IPsec</text>
<text xml:space="preserve" text-anchor="middle" x="643.88" y="-43.7" font-family="Helvetica,sans-Serif" font-size="14.00">static (or BGP)</text>
</g>
<!-- ssh&#45;&gt;gw0 -->
<g id="edge6" class="edge">
<title>ssh&#45;&gt;gw0</title>
<path fill="none" stroke="black" d="M497.35,-619.83C517.12,-617.17 540.2,-610.4 554,-594 580.19,-562.86 535.63,-532.16 564,-503 613.98,-451.63 674.36,-532.93 723.75,-481 741.43,-462.41 720.46,-387.94 733.75,-366 734.03,-365.54 734.31,-365.09 734.6,-364.64"/>
<polygon fill="black" stroke="black" points="737.24,-366.95 740.51,-356.87 731.67,-362.71 737.24,-366.95"/>
<text xml:space="preserve" text-anchor="middle" x="643.88" y="-534.7" font-family="Helvetica,sans-Serif" font-size="14.00">/etc/nebius&#45;vpngw/</text>
<text xml:space="preserve" text-anchor="middle" x="643.88" y="-519.7" font-family="Helvetica,sans-Serif" font-size="14.00">config&#45;resolved.yaml</text>
<text xml:space="preserve" text-anchor="middle" x="643.88" y="-504.7" font-family="Helvetica,sans-Serif" font-size="14.00">+ reload</text>
</g>
<!-- ssh&#45;&gt;gw1 -->
<g id="edge7" class="edge">
<title>ssh&#45;&gt;gw1</title>
<path fill="none" stroke="#7f7f7f" stroke-dasharray="5,2" d="M497.7,-619.49C552.07,-615.58 654.45,-601.64 723.75,-552 753.39,-530.77 775.95,-496.47 791.06,-467.63"/>
<polygon fill="#7f7f7f" stroke="#7f7f7f" points="794.02,-469.54 795.41,-459.04 787.77,-466.38 794.02,-469.54"/>
<text xml:space="preserve" text-anchor="middle" x="643.88" y="-612.4" font-family="Helvetica,sans-Serif" font-size="14.00">(if instance_count&gt;1)</text>
</g>
</g>
</svg>
