<svg viewBox="0 0 340 540" role="img" aria-labelledby="tools-systems-timeline-title tools-systems-timeline-desc">
<title id="tools-systems-timeline-title">A kernel is only part of a request</title>
<desc id="tools-systems-timeline-desc">Read downward in milliseconds. This synthetic request has 2 ms of CPU preparation, 1 ms of input transfer, 3 ms of GPU computation and 1 ms of output transfer. The diagonal connector links host submission to GPU execution; it is a dependency, not a duration.</desc>
<rect x="1" y="1" width="338" height="538" rx="12" fill="#ffffff" stroke="#52626b"/>
<g font-family="Arial, sans-serif"><text x="18" y="30" font-size="21" text-anchor="start" fill="#24343d" font-weight="700">Nsight Systems</text><text x="18" y="55" font-size="15" text-anchor="start" fill="#24343d" font-weight="400">Synthetic serial request · time ↓</text><text x="87" y="88" font-size="17" text-anchor="middle" fill="#245880" font-weight="700">CPU</text><text x="254" y="88" font-size="17" text-anchor="middle" fill="#206757" font-weight="700">GPU / copies</text><text x="18" y="120" font-size="14" text-anchor="start" fill="#24343d" font-weight="400">0</text><line x1="37" y1="115" x2="324" y2="115" stroke="#b8c6ce" stroke-width="2" stroke-dasharray="3 4"/><text x="18" y="168" font-size="14" text-anchor="start" fill="#24343d" font-weight="400">1</text><line x1="37" y1="163" x2="324" y2="163" stroke="#b8c6ce" stroke-width="2" stroke-dasharray="3 4"/><text x="18" y="216" font-size="14" text-anchor="start" fill="#24343d" font-weight="400">2</text><line x1="37" y1="211" x2="324" y2="211" stroke="#b8c6ce" stroke-width="2" stroke-dasharray="3 4"/><text x="18" y="264" font-size="14" text-anchor="start" fill="#24343d" font-weight="400">3</text><line x1="37" y1="259" x2="324" y2="259" stroke="#b8c6ce" stroke-width="2" stroke-dasharray="3 4"/><text x="18" y="312" font-size="14" text-anchor="start" fill="#24343d" font-weight="400">4</text><line x1="37" y1="307" x2="324" y2="307" stroke="#b8c6ce" stroke-width="2" stroke-dasharray="3 4"/><text x="18" y="360" font-size="14" text-anchor="start" fill="#24343d" font-weight="400">5</text><line x1="37" y1="355" x2="324" y2="355" stroke="#b8c6ce" stroke-width="2" stroke-dasharray="3 4"/><text x="18" y="408" font-size="14" text-anchor="start" fill="#24343d" font-weight="400">6</text><line x1="37" y1="403" x2="324" y2="403" stroke="#b8c6ce" stroke-width="2" stroke-dasharray="3 4"/><text x="18" y="456" font-size="14" text-anchor="start" fill="#24343d" font-weight="400">7</text><line x1="37" y1="451" x2="324" y2="451" stroke="#b8c6ce" stroke-width="2" stroke-dasharray="3 4"/><text x="14" y="489" font-size="14" text-anchor="start" fill="#24343d" font-weight="400">ms</text><rect x="47" y="115" width="126" height="96" rx="8" fill="#eef5fc" stroke="#245880" stroke-width="1.5"/><text x="110" y="148" font-size="16" text-anchor="middle" fill="#24343d" font-weight="400">Prepare</text><text x="110" y="171" font-size="16" text-anchor="middle" fill="#24343d" font-weight="400">input</text><text x="110" y="194" font-size="15" text-anchor="middle" fill="#24343d" font-weight="400">0–2 ms</text><rect x="211" y="211" width="114" height="48" rx="8" fill="#eef8f2" stroke="#206757" stroke-width="1.5"/><text x="268" y="232" font-size="15" text-anchor="middle" fill="#24343d" font-weight="400">Input copy</text><text x="268" y="250" font-size="14" text-anchor="middle" fill="#24343d" font-weight="400">2–3 ms</text><rect x="47" y="216" width="126" height="33" rx="8" fill="#fff7e7" stroke="#86500e" stroke-width="1.5"/><text x="110" y="238" font-size="14" text-anchor="middle" fill="#24343d" font-weight="400">Submit kernel</text><line x1="174" y1="233" x2="207" y2="262" stroke="#245880" stroke-width="2"/><rect x="211" y="259" width="114" height="144" rx="8" fill="#eef8f2" stroke="#206757" stroke-width="1.5"/><text x="268" y="316" font-size="17" text-anchor="middle" fill="#24343d" font-weight="400">Kernel</text><text x="268" y="340" font-size="15" text-anchor="middle" fill="#24343d" font-weight="400">3–6 ms</text><rect x="47" y="259" width="126" height="192" rx="8" fill="#fff7e7" stroke="#86500e" stroke-width="1.5"/><text x="110" y="335" font-size="16" text-anchor="middle" fill="#24343d" font-weight="400">Required</text><text x="110" y="359" font-size="16" text-anchor="middle" fill="#24343d" font-weight="400">waiting</text><rect x="211" y="403" width="114" height="48" rx="8" fill="#eef8f2" stroke="#206757" stroke-width="1.5"/><text x="268" y="424" font-size="15" text-anchor="middle" fill="#24343d" font-weight="400">Output copy</text><text x="268" y="443" font-size="14" text-anchor="middle" fill="#24343d" font-weight="400">6–7 ms</text><text x="170" y="513" font-size="17" text-anchor="middle" fill="#24343d" font-weight="700">3 ms kernel · 7 ms request</text></g>
</svg>
